<?xml version="1.0" encoding="UTF-8" standalone="no"?>
<svg width="128px" height="128px" viewBox="0 0 128 128" version="1.1" xmlns="http://www.w3.org/2000/svg" xmlns:xlink="http://www.w3.org/1999/xlink" xmlns:sketch="http://www.bohemiancoding.com/sketch/ns">
    <!-- Generator: Sketch 3.3.1 (12002) - http://www.bohemiancoding.com/sketch -->
    <title>Artboard 2</title>
    <desc>Created with Sketch.</desc>
    <defs></defs>
    <g id="Page-2" stroke="none" stroke-width="1" fill="none" fill-rule="evenodd" sketch:type="MSPage">
        <g id="Artboard-2" sketch:type="MSArtboardGroup">
            <g id="gov-icon-copy" sketch:type="MSLayerGroup" transform="translate(9.000000, 9.000000)">
                <circle id="Oval-2" fill="#5CC1AF" sketch:type="MSShapeGroup" cx="54.7420155" cy="54.538125" r="54"></circle>
                <g id="Layer_x0020_1" transform="translate(21.759690, 23.000000)" fill="#FEFDFF" sketch:type="MSShapeGroup">
                    <path d="M11.3738927,22.3582891 L16.7551124,22.3582891 L17.5823967,51.5447344 L10.6498334,51.5449324 L11.3738929,22.3581875 L11.3738929,22.3582891 L11.3738927,22.3582891 Z M6.30225962,52.5939376 L59.700956,52.5939376 L59.700956,56.3492033 L62.9004237,56.3492033 L62.9002325,60.1044741 L66.0031162,60.1044741 L66.0031162,63.8593492 L0,63.8590522 L0,60.1044741 L3.10288507,60.1044741 L3.10288507,56.3492033 L6.30216157,56.3492033 L6.30216157,52.5939376 L6.30225979,52.5939376 L6.30225962,52.5939376 Z M62.4858552,14.2090769 L33.0010179,0.170666667 L3.5156987,14.2090769 L3.51589243,16.504129 L62.4857568,16.5043243 L62.4857568,14.2090769 L62.485855,14.2090769 L62.4858552,14.2090769 Z M9.20005799,17.5542124 L56.8033539,17.5542124 L56.8033539,21.308793 L9.20005799,21.308793 L9.20005799,17.5542124 L9.20005799,17.5542124 Z M49.1443875,22.3582892 L54.525602,22.3582892 L55.3530852,51.5450315 L48.4206201,51.5447345 L49.1443875,22.3582892 L49.1443875,22.3582892 Z M36.5542247,22.3582892 L41.9354417,22.3584845 L42.7629197,51.5447345 L35.8301601,51.5449325 L36.5542247,22.3581877 L36.5542247,22.3582892 L36.5542247,22.3582892 Z M23.9640567,22.3582892 L29.34508,22.3579897 L30.1729585,51.5447345 L23.2399999,51.5447345 L23.9640567,22.3582892 L23.9640567,22.3582892 Z" id="path10"></path>
                </g>
            </g>
        </g>
    </g>
</svg>