<?xml version="1.0" encoding="UTF-8" standalone="no"?>
<svg width="1229px" height="259px" viewBox="0 0 1229 259" version="1.1" xmlns="http://www.w3.org/2000/svg" xmlns:xlink="http://www.w3.org/1999/xlink" xmlns:sketch="http://www.bohemiancoding.com/sketch/ns">
    <!-- Generator: Sketch 3.3.1 (12002) - http://www.bohemiancoding.com/sketch -->
    <title>navbar-logo prime</title>
    <desc>Created with Sketch.</desc>
    <defs></defs>
    <g id="Page-1" stroke="none" stroke-width="1" fill="none" fill-rule="evenodd" sketch:type="MSPage">
        <g id="navbar-logo-prime" sketch:type="MSLayerGroup">
            <path d="M129.06906,258.20892 C200.351934,258.20892 258.138121,200.406885 258.138121,129.10446 C258.138121,57.8020357 200.351934,0 129.06906,0 C57.7861867,0 0,57.8020357 0,129.10446 C0,200.406885 57.7861867,258.20892 129.06906,258.20892 Z" id="Oval-7-Copy" fill="#5CC1AF" sketch:type="MSShapeGroup"></path>
            <ellipse id="Oval-7" fill="#FEFDFF" sketch:type="MSShapeGroup" cx="119.203909" cy="117.59196" rx="114.271334" ry="114.302675"></ellipse>
            <path d="M114.271334,15.1070151 C124.136485,-17.9399442 59.1909067,130.584539 59.1909067,161.780065 C59.1909067,192.975592 83.8512539,218.264562 114.271334,218.264562 C144.691414,218.264562 169.351761,192.975592 169.351761,161.780065 C169.351761,130.584539 104.406183,48.1539744 114.271334,15.1070151 L114.271334,15.1070151 Z" id="Oval-2" fill="#3949AB" sketch:type="MSShapeGroup"></path>
            <text id="DreamCanvas-Copy" sketch:type="MSTextLayer" font-family="Century Schoolbook" font-size="140" font-weight="normal" sketch:alignment="middle" fill="#5CC1AF">
                <tspan x="308.138672" y="188">DreamCanvas</tspan>
            </text>
        </g>
    </g>
</svg>